<svg id="logosandtypes_com" data-name="logosandtypes com" xmlns="http://www.w3.org/2000/svg" xmlns:xlink="http://www.w3.org/1999/xlink" viewBox="0 0 150 150"><defs><style>.cls-1{fill:none;}.cls-10,.cls-2,.cls-3,.cls-4,.cls-5,.cls-6,.cls-7,.cls-8,.cls-9{fill-rule:evenodd;}.cls-2{fill:url(#linear-gradient);}.cls-3{fill:url(#linear-gradient-2);}.cls-4{fill:#40c4ff;}.cls-5{fill:url(#linear-gradient-3);}.cls-6{fill:url(#linear-gradient-4);}.cls-7{fill:url(#linear-gradient-5);}.cls-8{fill:url(#linear-gradient-6);}.cls-9{fill:#304ffe;}.cls-10{fill:#80d8ff;}</style><linearGradient id="linear-gradient" x1="-739.03" y1="550.1" x2="-739.03" y2="545.94" gradientTransform="matrix(6.67, 0, 0, -8, 5030.54, 4481)" gradientUnits="userSpaceOnUse"><stop offset="0" stop-color="#2979ff"/><stop offset="1" stop-color="#304ffe"/></linearGradient><linearGradient id="linear-gradient-2" x1="-736.64" y1="549.04" x2="-739.38" y2="551.01" gradientTransform="matrix(6.67, 0, 0, -8, 5030.54, 4477)" gradientUnits="userSpaceOnUse"><stop offset="0" stop-color="#2979ff"/><stop offset="1" stop-color="#40c4ff"/></linearGradient><linearGradient id="linear-gradient-3" x1="-740.39" y1="551.31" x2="-740.39" y2="555.25" gradientTransform="matrix(6.67, 0, 0, -8, 5027.28, 4467)" gradientUnits="userSpaceOnUse"><stop offset="0" stop-color="#40c4ff"/><stop offset="1" stop-color="#2979ff"/></linearGradient><linearGradient id="linear-gradient-4" x1="-747.25" y1="548.98" x2="-744.51" y2="550.95" gradientTransform="matrix(6.67, 0, 0, -8, 5017.28, 4477)" gradientUnits="userSpaceOnUse"><stop offset="0" stop-color="#40c4ff"/><stop offset="1" stop-color="#80d8ff"/></linearGradient><linearGradient id="linear-gradient-5" x1="-743.55" y1="551.31" x2="-743.55" y2="555.25" gradientTransform="matrix(6.67, 0, 0, -8, 5020.54, 4467)" xlink:href="#linear-gradient"/><linearGradient id="linear-gradient-6" x1="-744.91" y1="545.94" x2="-744.91" y2="550.1" gradientTransform="matrix(6.67, 0, 0, -8, 5017.28, 4481)" xlink:href="#linear-gradient-2"/></defs><path id="Layer_3" data-name="Layer 3" class="cls-1" d="M0,0H150V150H0Z"/><polygon id="Path-13" class="cls-2" points="114.41 95.97 88.12 113.46 88.12 80.2 114.41 95.97"/><polygon id="Path-13-2" data-name="Path-13" class="cls-3" points="88.12 80.2 114.41 95.97 116.34 63.28 88.12 80.2"/><polygon id="Path-13-3" data-name="Path-13" class="cls-4" points="114.41 46.58 134.12 36.85 134.12 84.14 114.41 95.97 114.41 46.58"/><polygon id="Path-13-4" data-name="Path-13" class="cls-4" points="75 143.26 73.76 120.36 114.41 95.97 114.41 119.61 75 143.26"/><polygon id="Path-13-5" data-name="Path-13" class="cls-5" points="102.7 39.94 75 56.56 75 25.03 102.7 39.94"/><polygon id="Path-13-6" data-name="Path-13" class="cls-6" points="61.88 80.2 35.59 95.97 34.68 63.9 61.88 80.2"/><polygon id="Path-13-7" data-name="Path-13" class="cls-7" points="47.27 39.93 75 56.56 75 25.03 47.27 39.93"/><polygon id="Path-13-8" data-name="Path-13" class="cls-8" points="35.59 95.97 61.88 113.46 61.88 80.2 35.59 95.97"/><polygon id="Path-13-9" data-name="Path-13" class="cls-9" points="35.59 47.04 15.88 36.85 15.88 84.14 35.59 95.97 35.59 47.04"/><polygon id="Path-13-10" data-name="Path-13" class="cls-10" points="114.41 48.67 134.12 36.85 94.71 13.21 75 25.03 114.41 48.67"/><polygon id="Path-13-11" data-name="Path-13" class="cls-9" points="75 143.26 75 119.61 35.59 95.97 35.59 119.61 75 143.26"/><polygon id="Path-13-12" data-name="Path-13" class="cls-10" points="35.59 48.67 15.88 36.85 55.29 13.21 75 25.03 35.59 48.67"/></svg>